<svg enable-background="new 0 0 59.8 61" viewBox="0 0 59.8 61" xmlns="http://www.w3.org/2000/svg"><path d="m27.8 0h4.1c.1.1.1.2.2.2 1.2 0 2.5-.2 3.6.5h.2c.5 0 .9 0 1.3.2.5.3 1 .2 1.3.2.3.2.5.4.5.5.3 1.1.6 2.1.9 2.9.7 1.2 1.7 2.1 2.8 2.9s2.4 1 3.6 1.1c1.3.1 2.6-.2 3.7-.9 2 1.6 3.2 3.8 4.9 5.7 0 .1-.1.2 0 .3.6.7.8 1.6 1.3 2.3.8 1.1 1.3 2.4 1.8 3.7.5 1.1.7 2.3 1.2 3.3.2.4.3.7.2 1.1-.1.1-.3.3-.4.4-1.2.6-1.8 1.7-2.4 2.7-.7 1.1-.4 2.4-.7 3.5v.1c.4.6.2 1.2.2 1.5.8 2 1.8 3.5 3.4 4.7v1.1c-.1.1-.2.2-.2.3-.7 1.6-1.3 3.3-2.2 4.9-.9 1.5-1.5 3.1-2.6 4.5-.8.9-1.3 2.1-2.2 2.9-.1.1-.2.2-.2.3-.5.9-1.3 1.6-2.1 2-.3-.1-.5-.2-.7-.2-.5-.1-1-.4-1.6-.2-.8-.5-1.7-.3-2.5-.1-.8.1-1.6.3-2.3.9-.5.4-1.1.6-1.5 1s-.7 1-1 1.5c-.7 1-1.1 2.2-1.5 3.4-.1.5-.4.5-.8.7-1 .5-2.1.4-3.1.6-.9.2-1.8.4-2.8.3-.1 0-.2 0-.3.1-.5.4-.9.1-1.3-.1-.2.1-.3.4-.6.2-.2-.1-.5 0-.8.1-.6.1-1.2-.3-1.8-.3-.4 0-.9-.1-1.4-.2-.1.1-.2.1-.2.2-1.7-.5-3.5-.5-5.2-1.1-.1-.2-.3-.6-.4-.9-.2-.6-.3-1.2-.6-1.8-.8-1.9-2.4-3-4-4-.1 0-.1-.1-.2-.1-.9-.2-1.8-.3-2.7-.5-.7-.1-1.3.2-1.9.2-.7.1-1.4.4-2 .7-.4-.3-.9-.5-1.2-.9-.7-1.1-1.6-2-2.3-3.1-.9-1.6-2-3.2-2.9-4.8-.2-.4-.4-.8-.5-1.2-.5-1.5-1-3-1.7-4.5-.3-.5-.5-1.1-.4-1.7l1.7-1.7c.6-.6 1.2-1.4 1.3-2.2s.4-1.6.3-2.4-.2-1.7-.3-2.5c-.7-1.7-1.8-3-3.1-4 0-.4-.1-.8 0-1.1.4-1.2.6-2.5 1.1-3.6.4-.8.5-1.6 1-2.3.4-.6.7-1.2 1.1-1.9.5-.9 1-1.8 1.7-2.7.4-.5 1-.9 1.3-1.5.2-.5.7-.8 1-1.3.2-.4.5-.7.9-1.1s.8-.7 1.3-1c1.2.6 2.5.6 3.9.6h1c.3 0 .5-.1.8-.2 1.4-.3 2.4-1.2 3.3-2.1 1.3-1.3 2.1-2.8 2.1-4.6 1.2-.2 2.2-.9 3.4-.8.4-.4.9 0 1.3-.3.5-.3 1-.2 1.5-.2h1c.3 0 .4-.1.4-.2zm28.9 36.6c-.2.2-.3.2-.3.2 0 .1.1.2.1.3 0-.1.1-.3-.4.6.2-.2.3-.2.3-.2 0-.1-.1-.2-.1-.3 0 .1-.1.3.4-.6zm-55.5-15.7c-.2.3-.2.3 0 .7 0-.3 0-.5.3-1.3-.2.2-.3.2-.3.2 0 .1.1.2.1.3.1-.1.1-.2-.1.1zm43.4 30.6v-.1c-.3 0-.6 0-.9 0v.1c.3 0 .6 0 .9-.4v.2c.2 0 .3-.1.5-.1 0-.1 0-.1 0-.2-.2.1-.3.2-.5.5zm7.2-23s.1.1.1.1c.3-.1.7-.3 1-.4 0-.2-.1-.2-.1-.4-.3.2-.6.4-.9.9-.1 0-.1-.1-.1-.2-.1.1-.3.1-.4.2v.2c.1-.1.3-.1.4-.4zm-27.8 4c.1.1.2.2.2.3.5 1.7 2.2 2.9 4.1 3.6.4.1 1-.1 1.3.1.7.5 1.2-.1 1.8-.2.2 0 .4-.3.7-.4 1.6-.4 2.5-1.4 2.9-2.9.1-.5.4-.9.7-1.3 0-.5 0-1 0-1.6 0-1.6-.7-2.9-1.9-4-.4-.4-1-.8-1.2-.9-.6-.3-1-.5-1.5-.7-.6 0-1.4 0-2.1 0s-1.4.3-2 .7-1.2.9-1.7 1.4c-1.3 1.3-1.6 2.9-1.6 4.6.4.4.3.9.3 1.3zm22.6 16.4c.6-.1 1-.1 1.4-.1 1.1 0 2-.4 3-1 .9-.5 1.6-1.4 2.3-2.1 1.2-1.2 1.8-2.7 1.8-4.4 0-.7 0-1.4 0-2.2 0-.3-.1-.5-.1-.8-.3-1.4-1.2-2.4-1.8-3.7-.2-.3-.6-.6-1-.8-.7-.5-1.4-.9-2.2-1.4-1-.2-2.1-.6-3.3-.5-.7 0-1.4.2-2.2.3-.7.1-1.5.4-2.2.8-1 .7-1.9 1.5-2.7 2.5-.5.6-.8 1.5-1.1 2.3-.1.3-.1.6-.1.9v3.7c.3.5.5 1.1.7 1.6.2.6.4 1.2.9 1.7.5.4.9.9 1.3 1.4s1 .6 1.5 1 1.2.4 1.8.7c.9.1 1.6-.4 2 .1zm-8.4-39.1c-.1-.4-.1-.7-.2-1-.4-1.5-1.3-2.7-2.1-4-.2-.3-.4-.6-.7-.7-.6-.2-1-.7-1.5-1s-1.1-.4-1.6-.7c-.5-.2-1.2-.6-1.7-.3-.3.2-.5.2-.8.2-.6 0-1.1-.1-1.7 0-.5.1-1 .4-1.5.6-.4.2-.8.2-1.1.4-.6.3-2 1.9-2.4 2.6-.2.4-.6.7-.7 1.1-.3.9-.5 1.8-.9 2.7-.1.1-.1.4 0 .4.4.4.1.9.2 1.3.1.5.3.9.5 1.4.2.7.7 1.3.7 2.1 0 .1.1.1.1.2.8.7 1.4 1.7 2.3 2.3.5.3.9.7 1.5.8 1 .3 2.1.5 3.2.7.8.2 1.5-.2 2.3-.3.3 0 .6-.4.9-.4 1.3-.3 2.3-1 3.1-2 .5-.6.9-1.4 1.4-2.1.6-.9.9-2 .9-3.1 0-.5.2-1 .4-1.5-.3.4-.4.3-.6.3zm-29.7 18.3c.8.2 1.6.6 2.4.7 1.2.1 2.5 0 3.7 0h.5c1.2-.5 2.5-1 3.5-2 .7-.7 1.3-1.5 1.9-2.4.3-.4.4-.8.5-1.2.3-.7.2-1.3.4-2 .3-1 0-2-.3-2.9-.5-1.4-1.5-2.5-2.2-3.8 0-.1.1-.1.1-.2-.1-.1-.2-.3-.3-.4-.2.1-.3.2-.4.3-.6-.4-1.1-.8-1.5-1.2-.4-.1-.7-.1-.9-.3-1.1-.7-2.4-.4-3.6-.7-.3-.1-.6 0-.9.1s-.5.2-.9.2c-.7 0-1.3.3-1.9.7-.8.5-1.5 1.3-2.2 2-1.3 1.2-1.8 2.6-1.8 4.3v2.9c0 .2 0 .5.1.7.8 1.4 1.2 3.1 2.8 4.1.5.1.8.5 1 1.1zm12.4 14.3c0-.7-.5-5.1-.8-6.3-.4-.4-1-.8-1.2-1.3-.3-.6-.8-.7-1.2-1.1-1.1-1.1-2.5-1.8-4.1-1.7-.3 0-.5-.1-.8-.1-.1 0-.2.1-.4.1-.3 0-.7-.1-.9 0-1.3.5-2.7.7-3.8 1.6-.7.6-1.5 1.1-1.8 2-.1.4-.3.7-.6 1.1-.2.3-.4.7-.4 1 0 1.1-.4 2.1-.3 3.3 0 .3-.1.6-.1 1 .1.9.7 1.5.9 2.4.1.5.5 1.1 1 1.5.4.3.8.6 1 1.2 0 .1.2.3.3.3.4-.1.6.3.9.5 1 .7 2.1 1.1 3.4 1 .5-.1 1 0 1.4 0 1 0 1.9-.3 2.7-.6.4-.2 1-.3 1.3-.6.4-.5.9-.9 1.4-1.3.6-.5 1-1.1 1.3-1.8.3-.8.5-1.4.8-2.2zm10.6-.6c-.5 0-1.1-.1-1.7 0-.7.1-1.3.2-2 .4-1.3.3-2.4 1-3.5 1.8-.3.2-.7.3-.8.6-.4 1-1.4 1.7-1.5 2.9 0 .2-.4.3-.5.4 0 .6.1 1.2 0 1.5-.2.5 0 .9-.2 1.4-.1.4.3.8 0 1.3.3.4.3 1 .5 1.4.7 1.6 1.6 3 3.3 3.7 1.1.5 2.2 1.1 3.6 1.3 1.1.1 2.7.3 3.5-.1.4-.2.8-.3 1.1-.5 1.1-.5 2.2-1.3 3-2.2.1-.2.2-.4.3-.6s.1-.5.3-.7c.9-1.1 1.2-2.3 1.2-3.7 0-.4.1-.8.2-1.2-.2-.6-.5-1.3-.6-2-.2-.9-.6-1.7-1.2-2.4-1.2-1.3-2.6-2.4-4.3-2.9-.2-.1-.4-.3-.7-.4zm23.7-21.1c0-.6 0-1.1 0-1.5 0-.1-.2-.2-.2-.4-.2-1.2-.8-2.2-1.4-3.3-.3-.6-.7-1.2-1.4-1.4-.2-.1-.4-.2-.6-.3-1.2-1.2-2.7-1.3-4.3-1.5-1.3-.2-2.5.4-3.8.8-.8.3-1.6.8-2.3 1.4-.2.1-.2.5-.6.5-.4.7-.8 1.3-1.2 2s-.6 1.6-.9 2.4c-.2.5 0 1.3 0 1.9 0 .7.2 1.4.5 2.1.2.6.6 1.1.9 1.7.5 1 1.1 1.9 2.2 2.3.1.1.3.1.4.3.8 1.1 2 1.1 3.1 1.4 1.2.3 2.5-.3 3.7-.2.1 0 .1-.1.2-.1 1.1-.3 2-1 2.9-1.7.8-.6 1.4-1.3 1.9-2.2.6-1.4 1-2.8.9-4.2zm-16 28.8c.1-.5.3-1 0-1.5-.1.3-.1.6-.1.9s-.2.6-.2.9c.1 0 .1.1.2.1 0-.1 0-.2.1-.4zm17.9-11.7h.2c0-.5.6-.9.1-1.4-.1.6-.2 1-.3 1.4zm-53.5-16.7c.2-.5.3-1.1 0-1.6zm20.8 14c-.1.5-.3.9 0 1.4 0-.5 0-1 0-1.4zm-2.8 2.1c.2-.4.3-.8 0-1.4zm-17.7-6.8c.2-.4.3-.8 0-1.1zm.7-14.3c-.1-.3-.1-.5-.1-.8-.2.3-.2.6-.4.8zm17 25.7c-.1 0-.1 0-.2 0 0 .3 0 .6.1.9h.1c0-.3 0-.6 0-.9zm15.9-17.8v.7c.1.1.2.2.3.3 0 0 .1-.1.1-.1-.1-.3-.2-.5-.4-.9zm-11.2 34c-.4.1-.6.1-.9.1.2.2.3.3.4.4zm17.3-28.5c0-.1 0-.1 0-.2-.2 0-.4.1-.6.1v.1zm-37.3 19.9h.1c0-.2 0-.5 0-.7h-.1zm16.5-18.2c-.1 0-.1 0-.2 0 0 .2.1.4.1.6h.1c0-.1 0-.3 0-.6zm30 .8v.2c.2 0 .4-.1.6-.1v-.1c-.1 0-.3 0-.6 0zm.5 1.1c-.2 0-.3.1-.5.1.2.1.3.2.5.3 0-.1 0-.2 0-.4zm-41.6 18.7c0-.1 0-.1 0-.2-.2 0-.4.1-.6.1v.1zm20.2-50.4c0-.1 0-.1 0-.2-.2 0-.4.1-.6.1v.1zm-9.5 19.7h.2c0-.2-.1-.4-.1-.6h-.1zm14.3 3.8c0-.1 0-.1 0-.2-.2 0-.4.1-.6.1v.1zm.3 33.4v-.1c-.2 0-.5 0-.7 0v.1zm-9.8 1.3v.2c.2 0 .4-.1.6-.1v-.1c-.2 0-.4 0-.6 0zm-19.6-28.2h-.1v.5h.1c0-.1 0-.3 0-.5zm13.1-17.2h.1c0-.2 0-.3 0-.5h-.1zm-3.9-1.8v-.1c-.2 0-.3 0-.5 0v.1zm2.2 0h.2c0-.1-.1-.3-.1-.4h-.1zm-4.4-.7c0-.1 0-.1 0-.2-.1 0-.3.1-.4.1v.1zm-5-3.3c-.1 0-.1 0-.2 0 0 .1.1.3.1.4h.1c0-.1 0-.2 0-.4zm2.6 22.3v-.1c-.2 0-.3 0-.5 0v.1zm31.8-1.1v.2c.1 0 .3-.1.4-.1v-.1c-.2 0-.3 0-.4 0zm-27.9-.4v-.1c-.2 0-.3 0-.5 0v.1zm-10.5-1.1h.1c0-.2 0-.3 0-.5h-.1zm-.8-1.3h.2c0-.1 0-.2 0-.4h-.1c-.1.2-.1.3-.1.4zm-2 8.8c-.1 0-.1 0-.2 0 0 .1.1.3.1.4h.1c0-.2 0-.3 0-.4zm2-9.5h.2c0-.1 0-.3 0-.4h-.1c-.1.2-.1.3-.1.4zm-1.6-.2h.2c0-.1-.1-.3-.1-.4h-.1zm17.3 10.3h.1c0-.2 0-.3 0-.5h-.1zm6.1 0c0-.1 0-.1 0-.2-.1 0-.3.1-.4.1v.1zm4.3-12.5c0-.1 0-.1 0-.2-.1 0-.3.1-.4.1v.1zm-19.4 7.2c0-.1 0-.1 0-.2-.1 0-.3.1-.4.1v.1zm9.2 19.7h.2c0-.1-.1-.3-.1-.4h-.1zm-19.9-12.7h.2c0-.1-.1-.3-.1-.4h-.1zm7.6 13.2h.2c0-.1-.1-.3-.1-.4h-.1zm1.5.9h.2c0-.1-.1-.3-.1-.4h-.1zm22.3-32.3v.2c.1 0 .3-.1.4-.1v-.1c-.1 0-.3 0-.4 0zm6.6 33.1c-.1 0-.1 0-.2 0 0 .1.1.3.1.4h.1c0-.1 0-.2 0-.4zm-9.8-14.4c0-.1 0-.1 0-.2-.1 0-.3.1-.4.1v.1zm-8.4 18c-.1 0-.1 0-.2 0 0 .1.1.3.1.4h.1c0-.1 0-.2 0-.4zm2.4-16.6h-.1v.5h.1c0-.1 0-.3 0-.5zm15.4 19.3c-.1 0-.1 0-.2 0 0 .1.1.3.1.4h.1c0-.2 0-.3 0-.4zm-2-29.3h-.1v.5h.1c0-.2 0-.4 0-.5z" fill="#fff"/></svg>